<svg xmlns="http://www.w3.org/2000/svg" width="131.281" height="42.886" viewBox="0 0 131.281 42.886"><defs><style>.a{fill:#2e3543;}.b{fill:#00a37c;}</style></defs><g transform="translate(-21.089 -24.659)"><path class="a" d="M122.3,81.334a10.155,10.155,0,0,1-1.8,6.309A5.752,5.752,0,0,1,115.687,90a5.812,5.812,0,0,1-4.478-1.859v8.08H107.38v-23.6h3.531l.159,1.735a5.62,5.62,0,0,1,4.586-2.05,5.816,5.816,0,0,1,4.892,2.325,10.394,10.394,0,0,1,1.771,6.452ZM118.49,81a7.114,7.114,0,0,0-1.015-4.048,3.3,3.3,0,0,0-2.91-1.5,3.521,3.521,0,0,0-3.371,1.939v7.563a3.559,3.559,0,0,0,3.4,1.99,3.3,3.3,0,0,0,2.862-1.473,7.9,7.9,0,0,0,1.031-4.49Z" transform="translate(-51.943 -28.676)"/><path class="a" d="M162.371,89.693a5.843,5.843,0,0,1-.442-1.592,6.44,6.44,0,0,1-8.666.442,4.693,4.693,0,0,1-1.624-3.626,4.845,4.845,0,0,1,2.026-4.184,9.774,9.774,0,0,1,5.788-1.457H161.8v-1.1a3,3,0,0,0-.74-2.122,2.934,2.934,0,0,0-2.253-.8,3.36,3.36,0,0,0-2.142.653,2.022,2.022,0,0,0-.836,1.664H152a4.259,4.259,0,0,1,.931-2.627,6.214,6.214,0,0,1,2.528-1.915,8.9,8.9,0,0,1,3.582-.693,7.174,7.174,0,0,1,4.777,1.5,5.336,5.336,0,0,1,1.827,4.231v7.662a8.717,8.717,0,0,0,.645,3.67v.271Zm-4.219-2.762a4.319,4.319,0,0,0,2.134-.553,3.646,3.646,0,0,0,1.5-1.481V81.689h-2.046a5.557,5.557,0,0,0-3.184.74,2.388,2.388,0,0,0-1.071,2.094,2.241,2.241,0,0,0,.732,1.759A2.85,2.85,0,0,0,158.151,86.931Z" transform="translate(-78.584 -28.7)"/><path class="a" d="M205.782,76.121a9.53,9.53,0,0,0-1.56-.123,3.5,3.5,0,0,0-3.543,2.014V89.675H196.85V72.622h3.642l.1,1.907a4.311,4.311,0,0,1,3.845-2.221,3.582,3.582,0,0,1,1.353.223Z" transform="translate(-105.799 -28.681)"/><path class="a" d="M232.129,72.023l-1.7,1.763v5.573H226.6V55.13h3.829V69.094l1.194-1.5,4.713-5.31h4.6L234.6,69.408l7.01,9.951h-4.426Z" transform="translate(-123.707 -18.342)"/><path class="b" d="M69.1,74.549a2.786,2.786,0,0,0-1.063-2.333A12.781,12.781,0,0,0,64.2,70.56,18.391,18.391,0,0,1,59.771,68.7a5.876,5.876,0,0,1-3.137-5.135A5.573,5.573,0,0,1,58.9,59a9.118,9.118,0,0,1,5.867-1.8,9.9,9.9,0,0,1,4.271.884,7,7,0,0,1,2.946,2.512,6.44,6.44,0,0,1,1.075,3.618H69.1A3.582,3.582,0,0,0,67.971,61.4a4.747,4.747,0,0,0-3.252-1.015,4.851,4.851,0,0,0-3.033.836,2.786,2.786,0,0,0-1.079,2.333,2.516,2.516,0,0,0,1.166,2.1,13.651,13.651,0,0,0,3.845,1.64A17.677,17.677,0,0,1,69.933,69.1a6.858,6.858,0,0,1,2.388,2.333,6.094,6.094,0,0,1,.756,3.081,5.465,5.465,0,0,1-2.2,4.562,9.52,9.52,0,0,1-5.971,1.692,11.237,11.237,0,0,1-4.566-.919A7.694,7.694,0,0,1,57.1,77.3a6.329,6.329,0,0,1-1.158-3.781h3.981a3.7,3.7,0,0,0,1.294,3.025,5.639,5.639,0,0,0,3.7,1.075,4.922,4.922,0,0,0,3.129-.844A2.723,2.723,0,0,0,69.1,74.549Z" transform="translate(-20.977 -19.585)"/><path class="b" d="M40.375,47.848a.3.3,0,0,1-.179-.06l-2.906-2.213a.3.3,0,1,1,.362-.478l2.906,2.213a.306.306,0,0,1,.056.422A.3.3,0,0,1,40.375,47.848Z" transform="translate(-9.681 -12.266)"/><path class="b" d="M51.419,56.277a.3.3,0,0,1-.183-.064l-3.582-2.743a.3.3,0,0,1-.06-.4.3.3,0,0,1,.422-.056L51.6,55.76a.3.3,0,0,1-.179.537Z" transform="translate(-15.924 -17.033)"/><path class="b" d="M84.551,29.77H84.5a.295.295,0,0,1-.235-.35l.86-4.5a.3.3,0,1,1,.585.111l-.86,4.5a.3.3,0,0,1-.295.239Z" transform="translate(-38.022)"/><path class="b" d="M81.481,45.254h-.056a.295.295,0,0,1-.235-.35l.912-4.777a.306.306,0,0,1,.6.119l-.912,4.777a.3.3,0,0,1-.31.231Z" transform="translate(-36.174 -9.162)"/><path class="b" d="M27.793,69.92h0l-6.417-.295a.3.3,0,0,1-.287-.314.287.287,0,0,1,.314-.283l6.417.295a.295.295,0,0,1,.287.31A.3.3,0,0,1,27.793,69.92Z" transform="translate(0 -26.707)"/><path class="b" d="M43.935,70.661h0l-2.544-.119a.295.295,0,0,1-.283-.31.291.291,0,0,1,.31-.283l2.544.115a.3.3,0,1,1,0,.6Z" transform="translate(-12.051 -27.262)"/><path class="b" d="M35.539,89.782a.3.3,0,0,1-.123-.573l1.636-.728a.3.3,0,1,1,.243.545l-1.636.728a.251.251,0,0,1-.119.028Z" transform="translate(-8.514 -38.402)"/><path class="b" d="M43.119,84.455a.3.3,0,0,1-.271-.179.3.3,0,0,1,.151-.4l4.506-1.99a.3.3,0,1,1,.243.541l-4.506,2A.279.279,0,0,1,43.119,84.455Z" transform="translate(-13.082 -34.423)"/><path class="b" d="M101.688,48.609a.3.3,0,0,1-.2-.517l2.536-2.333a.3.3,0,1,1,.4.438l-2.536,2.333a.291.291,0,0,1-.2.08Z" transform="translate(-48.337 -12.637)"/><path class="b" d="M95.807,55.858a.3.3,0,0,1-.219-.1.3.3,0,0,1,0-.422l1.226-1.126a.3.3,0,0,1,.422,0,.3.3,0,0,1,0,.422l-1.226,1.13a.3.3,0,0,1-.2.1Z" transform="translate(-44.792 -17.737)"/><path class="b" d="M63.314,31.561a.3.3,0,0,1-.287-.219L62.013,27.76a.295.295,0,0,1,.207-.366.3.3,0,0,1,.37.207L63.6,31.183a.295.295,0,0,1-.207.366A.255.255,0,0,1,63.314,31.561Z" transform="translate(-24.627 -1.64)"/><path class="b" d="M66.925,44.347a.307.307,0,0,1-.291-.219l-1.071-3.8a.3.3,0,0,1,.577-.159l1.067,3.781a.3.3,0,0,1-.207.37Z" transform="translate(-26.765 -9.203)"/><path class="b" d="M43.823,33.262a.283.283,0,0,1-.175-.06.3.3,0,0,1-.119-.291l.247-1.449L42.724,30.44a.3.3,0,0,1-.076-.306.3.3,0,0,1,.243-.2l1.453-.211.649-1.318a.314.314,0,0,1,.537,0l.649,1.318,1.453.211a.3.3,0,0,1,.243.2.31.31,0,0,1-.076.306L46.76,31.463,47,32.927a.3.3,0,0,1-.119.291.3.3,0,0,1-.314.024l-1.3-.713-1.286.7A.291.291,0,0,1,43.823,33.262Zm-.247-2.826.728.713a.3.3,0,0,1,.088.263l-.171,1.007.9-.478a.3.3,0,0,1,.275,0l.9.478-.171-1.007a.3.3,0,0,1,.088-.263l.728-.713-1.011-.147a.3.3,0,0,1-.223-.163l-.454-.916-.45.931a.3.3,0,0,1-.227.163Z" transform="translate(-12.969 -2.162)"/><path class="b" d="M92.322,38.218a.287.287,0,0,1-.115-.024.3.3,0,0,1-.183-.255l-.1-1.465-1.262-.752a.307.307,0,0,1-.143-.279.291.291,0,0,1,.187-.255l1.365-.545.322-1.433a.291.291,0,0,1,.223-.223.3.3,0,0,1,.3.1l.939,1.126,1.461-.131a.3.3,0,0,1,.283.454l-.8,1.242.577,1.349a.3.3,0,0,1-.044.314.31.31,0,0,1-.3.1l-1.421-.362-1.095.987A.306.306,0,0,1,92.322,38.218Zm-.816-2.7.876.521a.3.3,0,0,1,.147.235l.064,1.019.768-.673a.3.3,0,0,1,.255-.052l.991.251-.4-.939a.306.306,0,0,1,.024-.275l.545-.864-1.019.092a.3.3,0,0,1-.255-.1l-.653-.8-.227,1a.3.3,0,0,1-.179.211Zm.836-.657Z" transform="translate(-41.793 -5.009)"/><path class="b" d="M42.614,102.787a.31.31,0,0,1-.2-.076l-1.091-.983-1.429.342a.3.3,0,0,1-.3-.1.287.287,0,0,1-.044-.31l.6-1.345-.768-1.25a.3.3,0,0,1,0-.314.307.307,0,0,1,.287-.139l1.461.151.951-1.115a.3.3,0,0,1,.521.131l.307,1.437,1.353.561a.3.3,0,0,1,.036.533l-1.27.736-.115,1.453a.3.3,0,0,1-.187.251.283.283,0,0,1-.111.036ZM41.42,101.1a.31.31,0,0,1,.2.076l.756.681.08-1.015a.291.291,0,0,1,.151-.235l.868-.5-.943-.4a.291.291,0,0,1-.179-.211l-.211-1-.665.8a.3.3,0,0,1-.259.1L40.206,99.3l.533.872a.3.3,0,0,1,0,.275l-.4.935.991-.239a.207.207,0,0,1,.072-.036Z" transform="translate(-10.985 -43.871)"/><path class="a" d="M124.935,54.658h-1.712v1.4h1.99v.426h-2.5V52.54h2.476v.426h-1.962v1.27h1.7Z" transform="translate(-61.171 -16.783)"/><path class="a" d="M132.71,56.48V52.539h1.111a1.787,1.787,0,0,1,.908.227,1.533,1.533,0,0,1,.613.649,2.082,2.082,0,0,1,.215.963v.251a2.11,2.11,0,0,1-.215.975,1.521,1.521,0,0,1-.613.645,1.938,1.938,0,0,1-.927.231Zm.517-3.515v3.089h.549a1.194,1.194,0,0,0,.931-.374,1.54,1.54,0,0,0,.334-1.063v-.231a1.56,1.56,0,0,0-.314-1.043,1.13,1.13,0,0,0-.9-.4Z" transform="translate(-67.19 -16.782)"/><path class="a" d="M146.007,52.54v2.679a1.27,1.27,0,0,1-.35.912,1.409,1.409,0,0,1-.943.4h-.139a1.473,1.473,0,0,1-1.027-.346,1.246,1.246,0,0,1-.4-.963V52.54h.513v2.667a.824.824,0,0,0,.9.9.9.9,0,0,0,.677-.239.892.892,0,0,0,.235-.661V52.54Z" transform="translate(-73.473 -16.783)"/><path class="a" d="M155,56.055h1.863v.426H154.47V52.54H155Z" transform="translate(-80.289 -16.783)"/><path class="a" d="M165.775,55.45h-1.648l-.37,1.031h-.537l1.5-3.941h.454l1.5,3.941h-.533Zm-1.493-.426h1.337l-.669-1.843Z" transform="translate(-85.556 -16.783)"/><path class="a" d="M176.111,54.615a2.388,2.388,0,0,1-.971-.474.9.9,0,0,1-.306-.689.951.951,0,0,1,.374-.772,1.469,1.469,0,0,1,.963-.3,1.628,1.628,0,0,1,.724.155,1.194,1.194,0,0,1,.494.434,1.115,1.115,0,0,1,.175.6h-.525a.72.72,0,0,0-.235-.545.923.923,0,0,0-.641-.2.951.951,0,0,0-.6.167.565.565,0,0,0-.215.47.517.517,0,0,0,.2.4,1.99,1.99,0,0,0,.7.3,3.228,3.228,0,0,1,.768.306,1.135,1.135,0,0,1,.4.4,1.007,1.007,0,0,1,.135.521.923.923,0,0,1-.374.768,1.592,1.592,0,0,1-1,.287,1.851,1.851,0,0,1-.756-.155,1.278,1.278,0,0,1-.541-.426,1.039,1.039,0,0,1-.191-.613h.521a.681.681,0,0,0,.263.565,1.122,1.122,0,0,0,.7.207,1.007,1.007,0,0,0,.633-.171.545.545,0,0,0,.215-.454.537.537,0,0,0-.2-.45A2.432,2.432,0,0,0,176.111,54.615Z" transform="translate(-92.46 -16.684)"/><path class="a" d="M187.891,52.966h-1.266v3.515h-.533V52.966H184.83V52.54h3.045Z" transform="translate(-98.564 -16.783)"/><path class="a" d="M196.687,56.481h-.517V52.54h.517Z" transform="translate(-105.39 -16.783)"/><path class="a" d="M204.662,55.15a1.445,1.445,0,0,1-.458.963,1.517,1.517,0,0,1-1.035.338,1.389,1.389,0,0,1-1.119-.5,1.99,1.99,0,0,1-.4-1.337v-.378a2.245,2.245,0,0,1,.2-.967,1.453,1.453,0,0,1,.557-.637,1.521,1.521,0,0,1,.832-.223,1.425,1.425,0,0,1,1.007.35,1.457,1.457,0,0,1,.438.967h-.521a1.131,1.131,0,0,0-.291-.681.884.884,0,0,0-.633-.211.923.923,0,0,0-.8.366,1.672,1.672,0,0,0-.283,1.047v.4a1.728,1.728,0,0,0,.267,1.019.864.864,0,0,0,.748.4,1,1,0,0,0,.665-.2,1.071,1.071,0,0,0,.306-.681Z" transform="translate(-108.688 -16.702)"/><path class="a" d="M16.436,0H3.11V-23.558H16.436V-20.3H6.961v6.413h8.878v3.223H6.961v7.4h9.475Zm9.709.322a6.207,6.207,0,0,1-5.2-2.417,10.864,10.864,0,0,1-1.869-6.784A10.9,10.9,0,0,1,20.964-15.7a6.266,6.266,0,0,1,5.245-2.441,6.144,6.144,0,0,1,5.35,2.594h.193a22.7,22.7,0,0,1-.274-3.029v-6.494h3.8V0H32.316l-.661-2.336h-.177A6.054,6.054,0,0,1,26.145.322ZM27.16-2.739a4.121,4.121,0,0,0,3.4-1.313,6.914,6.914,0,0,0,1.1-4.262v-.532q0-3.368-1.1-4.786a4.065,4.065,0,0,0-3.432-1.418A3.482,3.482,0,0,0,24.05-13.43a8.3,8.3,0,0,0-1.08,4.616,8.092,8.092,0,0,0,1.047,4.52A3.536,3.536,0,0,0,27.16-2.739Z" transform="translate(117.089 61.059)"/></g></svg>