<svg xmlns="http://www.w3.org/2000/svg" width="104.877" height="34.261" viewBox="0 0 104.877 34.261"><defs><style>.a{fill:#fff;}.b{fill:#003260;}</style></defs><g transform="translate(-21.089 -24.659)"><path class="a" d="M39.731,47.283a.235.235,0,0,1-.143-.048l-2.321-1.768a.239.239,0,1,1,.289-.382l2.321,1.768a.245.245,0,0,1,.045.337A.242.242,0,0,1,39.731,47.283Z" transform="translate(-10.969 -13.898)"/><path class="a" d="M50.639,55.609a.235.235,0,0,1-.146-.051l-2.862-2.191a.238.238,0,0,1-.048-.318A.242.242,0,0,1,47.92,53L50.782,55.2a.238.238,0,0,1-.143.429Z" transform="translate(-18.042 -19.298)"/><path class="a" d="M84.491,28.742h-.045a.235.235,0,0,1-.188-.28l.687-3.593a.238.238,0,1,1,.467.089l-.687,3.593A.242.242,0,0,1,84.491,28.742Z" transform="translate(-43.079)"/><path class="a" d="M81.421,44.173h-.045a.235.235,0,0,1-.188-.28l.728-3.816a.245.245,0,1,1,.48.1l-.728,3.816a.239.239,0,0,1-.248.184Z" transform="translate(-40.985 -10.381)"/><path class="a" d="M26.444,69.74h0L21.318,69.5a.238.238,0,0,1-.229-.251.229.229,0,0,1,.251-.226l5.126.235a.235.235,0,0,1,.229.248A.242.242,0,0,1,26.444,69.74Z" transform="translate(0 -30.259)"/><path class="a" d="M43.367,70.518h0l-2.032-.1a.235.235,0,0,1-.226-.248.232.232,0,0,1,.248-.226l2.032.092a.238.238,0,1,1,0,.477Z" transform="translate(-13.654 -30.888)"/><path class="a" d="M35.477,89.515a.238.238,0,0,1-.1-.458l1.307-.582a.238.238,0,1,1,.194.436l-1.307.582a.2.2,0,0,1-.1.022Z" transform="translate(-9.647 -43.509)"/><path class="a" d="M43.059,83.93a.235.235,0,0,1-.216-.143.239.239,0,0,1,.121-.318l3.6-1.59a.238.238,0,1,1,.194.432l-3.6,1.6A.223.223,0,0,1,43.059,83.93Z" transform="translate(-14.822 -39.002)"/><path class="a" d="M101.628,48.015a.238.238,0,0,1-.162-.413l2.026-1.863a.238.238,0,1,1,.318.35l-2.026,1.863a.232.232,0,0,1-.156.064Z" transform="translate(-54.766 -14.318)"/><path class="a" d="M95.745,55.51a.242.242,0,0,1-.175-.079.239.239,0,0,1,0-.337l.979-.9a.242.242,0,0,1,.337,0,.238.238,0,0,1,0,.337l-.979.9A.235.235,0,0,1,95.745,55.51Z" transform="translate(-50.749 -20.096)"/><path class="a" d="M63.05,30.721a.238.238,0,0,1-.229-.175l-.811-2.862a.235.235,0,0,1,.165-.293.242.242,0,0,1,.3.165l.808,2.862a.235.235,0,0,1-.165.293A.2.2,0,0,1,63.05,30.721Z" transform="translate(-27.902 -1.858)"/><path class="a" d="M66.649,43.462a.245.245,0,0,1-.232-.175l-.855-3.037a.239.239,0,0,1,.461-.127l.852,3.021a.242.242,0,0,1-.165.3Z" transform="translate(-30.325 -10.427)"/><path class="a" d="M43.584,32.254a.226.226,0,0,1-.14-.048.235.235,0,0,1-.1-.232l.2-1.157L42.706,30a.242.242,0,0,1-.06-.245.238.238,0,0,1,.194-.162L44,29.424l.518-1.053a.251.251,0,0,1,.429,0l.518,1.053,1.161.169a.242.242,0,0,1,.194.162.248.248,0,0,1-.06.245l-.83.817.188,1.17a.235.235,0,0,1-.1.232.239.239,0,0,1-.251.019l-1.04-.569-1.027.556A.232.232,0,0,1,43.584,32.254ZM43.387,30l.582.569a.235.235,0,0,1,.07.21l-.137.8.722-.382a.242.242,0,0,1,.219,0l.722.382-.137-.8a.235.235,0,0,1,.07-.21L46.08,30l-.808-.118a.242.242,0,0,1-.178-.13l-.363-.731-.359.744a.242.242,0,0,1-.181.13Z" transform="translate(-14.694 -2.449)"/><path class="a" d="M91.96,37.165a.229.229,0,0,1-.092-.019.235.235,0,0,1-.146-.2l-.08-1.17-1.008-.6a.245.245,0,0,1-.114-.223.232.232,0,0,1,.149-.2l1.091-.436.258-1.145a.232.232,0,0,1,.178-.178.238.238,0,0,1,.238.079l.75.9,1.167-.1a.238.238,0,0,1,.226.363l-.636.992.461,1.078a.238.238,0,0,1-.035.251.248.248,0,0,1-.242.076l-1.135-.289-.874.789A.245.245,0,0,1,91.96,37.165Zm-.652-2.156.7.417a.242.242,0,0,1,.118.188l.051.814.614-.537a.242.242,0,0,1,.2-.041l.792.2-.318-.75a.245.245,0,0,1,.019-.219l.436-.69-.814.073a.239.239,0,0,1-.2-.083l-.522-.636-.181.8a.239.239,0,0,1-.143.169Zm.668-.525Z" transform="translate(-47.352 -5.675)"/><path class="a" d="M41.955,101.732a.248.248,0,0,1-.159-.06l-.871-.785-1.142.273a.242.242,0,0,1-.238-.08.229.229,0,0,1-.035-.248l.477-1.075-.614-1a.238.238,0,0,1,0-.251A.245.245,0,0,1,39.6,98.4l1.167.121.76-.89a.238.238,0,0,1,.417.1l.245,1.148,1.081.448a.238.238,0,0,1,.029.426l-1.014.588-.092,1.161a.235.235,0,0,1-.149.2.226.226,0,0,1-.089.029ZM41,100.387a.248.248,0,0,1,.162.06l.6.544.064-.811a.232.232,0,0,1,.121-.188l.693-.4-.754-.318a.232.232,0,0,1-.143-.169l-.169-.8-.531.636a.235.235,0,0,1-.207.083l-.811-.086.426.7a.235.235,0,0,1,0,.219l-.318.747.792-.191a.165.165,0,0,1,.057-.029Z" transform="translate(-12.446 -49.706)"/><path class="a" d="M124.488,54.232H123.12v1.116h1.59v.34h-2V52.54h1.978v.34H123.12v1.014h1.361Z" transform="translate(-69.306 -19.015)"/><path class="a" d="M132.71,55.688V52.539h.887a1.428,1.428,0,0,1,.725.181,1.224,1.224,0,0,1,.49.518,1.663,1.663,0,0,1,.172.77v.2a1.685,1.685,0,0,1-.172.779,1.215,1.215,0,0,1-.49.515,1.549,1.549,0,0,1-.741.184Zm.413-2.808v2.468h.439a.954.954,0,0,0,.744-.3,1.231,1.231,0,0,0,.267-.849v-.184a1.247,1.247,0,0,0-.251-.833.9.9,0,0,0-.715-.318Z" transform="translate(-76.126 -19.014)"/><path class="a" d="M145.431,52.54v2.14a1.014,1.014,0,0,1-.28.728,1.126,1.126,0,0,1-.754.318h-.111a1.177,1.177,0,0,1-.82-.277,1,1,0,0,1-.318-.77V52.54h.41v2.131a.658.658,0,0,0,.722.722.722.722,0,0,0,.541-.191.712.712,0,0,0,.188-.528V52.54Z" transform="translate(-83.245 -19.015)"/><path class="a" d="M154.89,55.348h1.488v.34H154.47V52.54h.42Z" transform="translate(-90.967 -19.015)"/><path class="a" d="M165.262,54.865h-1.316l-.3.824h-.429l1.2-3.148h.363l1.2,3.148h-.426Zm-1.192-.34h1.068l-.534-1.472Z" transform="translate(-96.935 -19.015)"/><path class="a" d="M175.825,54.164a1.908,1.908,0,0,1-.776-.378.722.722,0,0,1-.245-.55.76.76,0,0,1,.3-.617,1.173,1.173,0,0,1,.77-.242,1.3,1.3,0,0,1,.579.124.954.954,0,0,1,.394.347.891.891,0,0,1,.14.48h-.42a.576.576,0,0,0-.188-.436.738.738,0,0,0-.512-.162.76.76,0,0,0-.477.134.452.452,0,0,0-.172.375.413.413,0,0,0,.162.318,1.59,1.59,0,0,0,.556.242,2.579,2.579,0,0,1,.614.245.906.906,0,0,1,.318.318.8.8,0,0,1,.108.417.738.738,0,0,1-.3.614,1.272,1.272,0,0,1-.8.229,1.479,1.479,0,0,1-.6-.124,1.021,1.021,0,0,1-.432-.34.83.83,0,0,1-.153-.49h.417a.544.544,0,0,0,.21.452.9.9,0,0,0,.563.165.8.8,0,0,0,.506-.137.436.436,0,0,0,.172-.363.429.429,0,0,0-.159-.359A1.943,1.943,0,0,0,175.825,54.164Z" transform="translate(-104.757 -18.903)"/><path class="a" d="M187.275,52.88h-1.011v2.808h-.426V52.88H184.83v-.34h2.433Z" transform="translate(-111.673 -19.015)"/><path class="a" d="M196.583,55.688h-.413V52.54h.413Z" transform="translate(-119.407 -19.015)"/><path class="a" d="M204.056,54.6a1.154,1.154,0,0,1-.366.77,1.211,1.211,0,0,1-.827.27,1.11,1.11,0,0,1-.894-.4,1.59,1.59,0,0,1-.318-1.068v-.3a1.793,1.793,0,0,1,.156-.773,1.161,1.161,0,0,1,.445-.509,1.215,1.215,0,0,1,.665-.178,1.138,1.138,0,0,1,.8.28,1.164,1.164,0,0,1,.35.773h-.417a.9.9,0,0,0-.232-.544.706.706,0,0,0-.506-.169.738.738,0,0,0-.636.293,1.336,1.336,0,0,0-.226.836v.318a1.38,1.38,0,0,0,.213.814.69.69,0,0,0,.6.318.8.8,0,0,0,.531-.159.856.856,0,0,0,.245-.544Z" transform="translate(-123.143 -18.923)"/><path class="a" d="M119.3,79.516a8.112,8.112,0,0,1-1.434,5.04,4.6,4.6,0,0,1-3.851,1.883,4.643,4.643,0,0,1-3.577-1.485v6.455H107.38V72.552H110.2l.127,1.386a4.49,4.49,0,0,1,3.663-1.638,4.646,4.646,0,0,1,3.908,1.857,8.3,8.3,0,0,1,1.415,5.155Zm-3.046-.267a5.683,5.683,0,0,0-.811-3.234,2.639,2.639,0,0,0-2.325-1.2,2.813,2.813,0,0,0-2.693,1.549V82.41A2.843,2.843,0,0,0,113.145,84a2.639,2.639,0,0,0,2.286-1.177,6.31,6.31,0,0,0,.824-3.587Z" transform="translate(-58.851 -32.489)"/><path class="a" d="M160.212,86.2a4.669,4.669,0,0,1-.353-1.272,5.145,5.145,0,0,1-6.923.353,3.749,3.749,0,0,1-1.3-2.9,3.871,3.871,0,0,1,1.619-3.342,7.808,7.808,0,0,1,4.624-1.164h1.876V77a2.394,2.394,0,0,0-.591-1.695,2.344,2.344,0,0,0-1.8-.636,2.684,2.684,0,0,0-1.711.522,1.615,1.615,0,0,0-.668,1.329h-3.059a3.4,3.4,0,0,1,.744-2.1,4.964,4.964,0,0,1,2.019-1.53,7.11,7.11,0,0,1,2.862-.553,5.731,5.731,0,0,1,3.816,1.2,4.263,4.263,0,0,1,1.46,3.38v6.121a6.964,6.964,0,0,0,.515,2.932v.216ZM156.841,84a3.45,3.45,0,0,0,1.7-.442,2.913,2.913,0,0,0,1.2-1.183V79.808h-1.634a4.439,4.439,0,0,0-2.544.591,1.908,1.908,0,0,0-.855,1.673,1.79,1.79,0,0,0,.585,1.406A2.277,2.277,0,0,0,156.841,84Z" transform="translate(-89.036 -32.517)"/><path class="a" d="M203.986,75.354a7.614,7.614,0,0,0-1.247-.1,2.8,2.8,0,0,0-2.83,1.609v9.317H196.85V72.559h2.91l.076,1.523a3.444,3.444,0,0,1,3.072-1.774,2.862,2.862,0,0,1,1.081.178Z" transform="translate(-119.87 -32.496)"/><path class="a" d="M231.017,68.626l-1.358,1.409v4.452H226.6V55.13h3.059V66.285l.954-1.2,3.765-4.242h3.676l-5.059,5.692,5.6,7.95h-3.536Z" transform="translate(-140.16 -20.781)"/><path class="a" d="M66.451,71.058A2.226,2.226,0,0,0,65.6,69.2a10.211,10.211,0,0,0-3.065-1.323A14.692,14.692,0,0,1,59,66.387a4.7,4.7,0,0,1-2.506-4.1A4.452,4.452,0,0,1,58.3,58.635,7.284,7.284,0,0,1,62.988,57.2,7.905,7.905,0,0,1,66.4,57.9a5.593,5.593,0,0,1,2.353,2.007,5.145,5.145,0,0,1,.859,2.891H66.451a2.862,2.862,0,0,0-.9-2.248,3.792,3.792,0,0,0-2.6-.811,3.876,3.876,0,0,0-2.423.668,2.226,2.226,0,0,0-.862,1.863,2.01,2.01,0,0,0,.932,1.679,10.905,10.905,0,0,0,3.072,1.31,14.122,14.122,0,0,1,3.447,1.447,5.479,5.479,0,0,1,1.908,1.863,4.869,4.869,0,0,1,.6,2.461,4.366,4.366,0,0,1-1.758,3.644,7.6,7.6,0,0,1-4.77,1.351,8.977,8.977,0,0,1-3.647-.735,6.147,6.147,0,0,1-2.592-2.035,5.056,5.056,0,0,1-.925-3.021h3.18a2.954,2.954,0,0,0,1.033,2.417,4.5,4.5,0,0,0,2.957.859,3.932,3.932,0,0,0,2.5-.674A2.175,2.175,0,0,0,66.451,71.058Z" transform="translate(-23.766 -22.19)"/><path class="b" d="M13.755-5.043H3.11v-18.82H13.755v2.6H6.186v5.123h7.093v2.574H6.186v5.908h7.569Zm7.756.257a4.959,4.959,0,0,1-4.158-1.931,8.679,8.679,0,0,1-1.493-5.419,8.707,8.707,0,0,1,1.513-5.451,5.006,5.006,0,0,1,4.19-1.95,4.908,4.908,0,0,1,4.274,2.072h.154a18.133,18.133,0,0,1-.219-2.42v-5.188h3.038v20.03H26.442l-.528-1.867h-.142A4.836,4.836,0,0,1,21.512-4.785Zm.811-2.446A3.292,3.292,0,0,0,25.039-8.28a5.523,5.523,0,0,0,.875-3.4v-.425a6.381,6.381,0,0,0-.875-3.823A3.247,3.247,0,0,0,22.3-17.066a2.782,2.782,0,0,0-2.459,1.294,6.63,6.63,0,0,0-.862,3.688,6.464,6.464,0,0,0,.837,3.611A2.825,2.825,0,0,0,22.323-7.231Z" transform="translate(97.155 58.781)"/></g></svg>