<svg xmlns="http://www.w3.org/2000/svg" width="92.171" height="81.493" viewBox="0 0 92.171 81.493"><defs><style>.a{fill:#9ecefc;}</style></defs><g transform="translate(-163 -211.001)"><g transform="translate(323 196.321)"><g transform="translate(0 21.68)"><path class="a" d="M80.755,56.291H62.634v-3.5a1.417,1.417,0,0,0-.723-1.233L42.5,40.65V35.1h3.839v2.111a1.417,1.417,0,0,0,1.417,1.417H59.333a1.417,1.417,0,0,0,1.332-1.9l-1.162-3.3,1.176-3.23a1.417,1.417,0,0,0-1.332-1.9h-5.27V26.242a1.417,1.417,0,0,0-1.417-1.417H42.5V23.1a1.417,1.417,0,1,0-2.833,0V40.65L20.259,51.545a1.417,1.417,0,0,0-.723,1.233v3.5H1.417A1.417,1.417,0,0,0,0,57.694V94.756a1.417,1.417,0,0,0,1.417,1.417H80.755a1.417,1.417,0,0,0,1.417-1.417V57.708A1.417,1.417,0,0,0,80.755,56.291Z" transform="translate(-150 -21.68)"/></g></g><g transform="translate(163 189.321)"><g transform="translate(0 21.68)"><path d="M80.755,56.291H62.634v-3.5a1.417,1.417,0,0,0-.723-1.233L42.5,40.65V35.1h3.839v2.111a1.417,1.417,0,0,0,1.417,1.417H59.333a1.417,1.417,0,0,0,1.332-1.9l-1.162-3.3,1.176-3.23a1.417,1.417,0,0,0-1.332-1.9h-5.27V26.242a1.417,1.417,0,0,0-1.417-1.417H42.5V23.1a1.417,1.417,0,1,0-2.833,0V40.65L20.259,51.545a1.417,1.417,0,0,0-.723,1.233v3.5H1.417A1.417,1.417,0,0,0,0,57.694V94.756a1.417,1.417,0,0,0,1.417,1.417H80.755a1.417,1.417,0,0,0,1.417-1.417V57.708A1.417,1.417,0,0,0,80.755,56.291ZM54.077,33.68l-.057-.057V31.186h3.23L56.67,33a1.417,1.417,0,0,0,0,.978l.666,1.813h-8.16V35.1H52.66A1.417,1.417,0,0,0,54.077,33.68ZM42.5,27.659h8.741v4.6H42.5ZM19.537,93.339H2.833V59.125h16.7Zm20.132,0H32.231V77.16h7.438Zm10.271,0H42.5V77.16H49.94Zm9.917,0H52.774v-17.6a1.417,1.417,0,0,0-1.417-1.417H30.814A1.417,1.417,0,0,0,29.4,75.743v17.6H22.314V53.67L41.086,43.1,59.8,53.613l.057,4.08Zm19.48,0h-16.7V59.125h16.7Z" transform="translate(0 -21.68)"/></g><g transform="translate(35.149 47.436)"><path d="M204.416,167.12a5.936,5.936,0,1,0,5.936,5.922A5.95,5.95,0,0,0,204.416,167.12Zm0,9.039a3.1,3.1,0,1,1,3.1-3.089h.014A3.1,3.1,0,0,1,204.416,176.159Z" transform="translate(-198.48 -167.12)"/></g><g transform="translate(6.248 62.241)"><rect width="2.833" height="5.667"/></g><g transform="translate(13.232 62.241)"><rect width="2.833" height="5.667"/></g><g transform="translate(26.621 62.241)"><rect width="5.667" height="2.833"/></g><g transform="translate(38.252 62.241)"><rect width="5.667" height="2.833"/></g><g transform="translate(49.884 62.241)"><rect width="5.667" height="2.833"/></g><g transform="translate(26.621 68.844)"><rect width="5.667" height="2.833"/></g><g transform="translate(38.252 68.844)"><rect width="5.667" height="2.833"/></g><g transform="translate(49.884 68.844)"><rect width="5.667" height="2.833"/></g><g transform="translate(6.248 73.391)"><rect width="2.833" height="5.667"/></g><g transform="translate(13.232 73.391)"><rect width="2.833" height="5.667"/></g><g transform="translate(6.248 84.555)"><rect width="2.833" height="5.667"/></g><g transform="translate(13.232 84.555)"><rect width="2.833" height="5.667"/></g><g transform="translate(66.105 62.241)"><rect width="2.833" height="5.667"/></g><g transform="translate(73.09 62.241)"><rect width="2.833" height="5.667"/></g><g transform="translate(66.105 73.391)"><rect width="2.833" height="5.667"/></g><g transform="translate(73.09 73.391)"><rect width="2.833" height="5.667"/></g><g transform="translate(66.105 84.555)"><rect width="2.833" height="5.667"/></g><g transform="translate(73.09 84.555)"><rect width="2.833" height="5.667"/></g></g></g></svg>